<?xml version="1.0" encoding="iso-8859-1"?>
<!-- Generator: Adobe Illustrator 19.0.0, SVG Export Plug-In . SVG Version: 6.00 Build 0)  -->
<svg version="1.1" id="Capa_1" xmlns="http://www.w3.org/2000/svg" xmlns:xlink="http://www.w3.org/1999/xlink" x="0px" y="0px"
	 viewBox="0 0 511 511" style="enable-background:new 0 0 511 511;" xml:space="preserve">
<g>
	<path d="M503.5,384H495V279h0.5c4.142,0,7.5-3.358,7.5-7.5s-3.358-7.5-7.5-7.5H359v-9h16.5c3.441,0,6.441-2.342,7.276-5.681
		c0.835-3.339-0.71-6.817-3.747-8.437L263,179v-12h40.5c2.599,0,5.013-1.346,6.38-3.557c1.367-2.211,1.491-4.972,0.328-7.297
		l-6.323-12.646l6.323-12.646c1.163-2.325,1.039-5.086-0.328-7.297c-1.367-2.211-3.781-3.557-6.38-3.557H263v-0.5
		c0-4.142-3.358-7.5-7.5-7.5s-7.5,3.358-7.5,7.5V179l-116.029,61.882c-3.037,1.62-4.582,5.098-3.747,8.437
		c0.834,3.338,3.834,5.681,7.276,5.681H152v9H15.5c-4.142,0-7.5,3.358-7.5,7.5s3.358,7.5,7.5,7.5H16v105H7.5
		c-4.142,0-7.5,3.358-7.5,7.5s3.358,7.5,7.5,7.5h496c4.142,0,7.5-3.358,7.5-7.5S507.642,384,503.5,384z M480,279v105H359V279H480z
		 M344,384h-17V255h17V384z M216,255v129h-17V255H216z M231,255h17v129h-17V255z M263,255h17v129h-17V255z M295,255h17v129h-17V255z
		 M291.365,135l-2.573,5.146c-1.056,2.111-1.056,4.597,0,6.708l2.573,5.146H263v-17H291.365z M255.5,192l90,48h-180L255.5,192z
		 M184,255v129h-17V255H184z M31,279h121v105H31V279z"/>
	<path d="M127.5,344c-4.142,0-7.5,3.358-7.5,7.5v8c0,4.142,3.358,7.5,7.5,7.5s7.5-3.358,7.5-7.5v-8
		C135,347.358,131.642,344,127.5,344z"/>
	<path d="M103.5,344c-4.142,0-7.5,3.358-7.5,7.5v8c0,4.142,3.358,7.5,7.5,7.5s7.5-3.358,7.5-7.5v-8
		C111,347.358,107.642,344,103.5,344z"/>
	<path d="M79.5,344c-4.142,0-7.5,3.358-7.5,7.5v8c0,4.142,3.358,7.5,7.5,7.5s7.5-3.358,7.5-7.5v-8C87,347.358,83.642,344,79.5,344z"
		/>
	<path d="M55.5,344c-4.142,0-7.5,3.358-7.5,7.5v8c0,4.142,3.358,7.5,7.5,7.5s7.5-3.358,7.5-7.5v-8C63,347.358,59.642,344,55.5,344z"
		/>
	<path d="M127.5,296c-4.142,0-7.5,3.358-7.5,7.5v24c0,4.142,3.358,7.5,7.5,7.5s7.5-3.358,7.5-7.5v-24
		C135,299.358,131.642,296,127.5,296z"/>
	<path d="M103.5,296c-4.142,0-7.5,3.358-7.5,7.5v24c0,4.142,3.358,7.5,7.5,7.5s7.5-3.358,7.5-7.5v-24
		C111,299.358,107.642,296,103.5,296z"/>
	<path d="M79.5,296c-4.142,0-7.5,3.358-7.5,7.5v24c0,4.142,3.358,7.5,7.5,7.5s7.5-3.358,7.5-7.5v-24C87,299.358,83.642,296,79.5,296
		z"/>
	<path d="M55.5,296c-4.142,0-7.5,3.358-7.5,7.5v24c0,4.142,3.358,7.5,7.5,7.5s7.5-3.358,7.5-7.5v-24C63,299.358,59.642,296,55.5,296
		z"/>
	<path d="M455.5,367c4.142,0,7.5-3.358,7.5-7.5v-8c0-4.142-3.358-7.5-7.5-7.5s-7.5,3.358-7.5,7.5v8
		C448,363.642,451.358,367,455.5,367z"/>
	<path d="M431.5,367c4.142,0,7.5-3.358,7.5-7.5v-8c0-4.142-3.358-7.5-7.5-7.5s-7.5,3.358-7.5,7.5v8
		C424,363.642,427.358,367,431.5,367z"/>
	<path d="M407.5,367c4.142,0,7.5-3.358,7.5-7.5v-8c0-4.142-3.358-7.5-7.5-7.5s-7.5,3.358-7.5,7.5v8
		C400,363.642,403.358,367,407.5,367z"/>
	<path d="M383.5,367c4.142,0,7.5-3.358,7.5-7.5v-8c0-4.142-3.358-7.5-7.5-7.5s-7.5,3.358-7.5,7.5v8
		C376,363.642,379.358,367,383.5,367z"/>
	<path d="M455.5,335c4.142,0,7.5-3.358,7.5-7.5v-24c0-4.142-3.358-7.5-7.5-7.5s-7.5,3.358-7.5,7.5v24
		C448,331.642,451.358,335,455.5,335z"/>
	<path d="M431.5,335c4.142,0,7.5-3.358,7.5-7.5v-24c0-4.142-3.358-7.5-7.5-7.5s-7.5,3.358-7.5,7.5v24
		C424,331.642,427.358,335,431.5,335z"/>
	<path d="M407.5,335c4.142,0,7.5-3.358,7.5-7.5v-24c0-4.142-3.358-7.5-7.5-7.5s-7.5,3.358-7.5,7.5v24
		C400,331.642,403.358,335,407.5,335z"/>
	<path d="M383.5,335c4.142,0,7.5-3.358,7.5-7.5v-24c0-4.142-3.358-7.5-7.5-7.5s-7.5,3.358-7.5,7.5v24
		C376,331.642,379.358,335,383.5,335z"/>
	<path d="M239.5,231h32c4.142,0,7.5-3.358,7.5-7.5s-3.358-7.5-7.5-7.5h-32c-4.142,0-7.5,3.358-7.5,7.5S235.358,231,239.5,231z"/>
</g>
<g>
</g>
<g>
</g>
<g>
</g>
<g>
</g>
<g>
</g>
<g>
</g>
<g>
</g>
<g>
</g>
<g>
</g>
<g>
</g>
<g>
</g>
<g>
</g>
<g>
</g>
<g>
</g>
<g>
</g>
</svg>
